<svg width="24" height="24" viewBox="0 0 24 24" fill="none" xmlns="http://www.w3.org/2000/svg">
<path d="M9.40291 15.0821C9.40291 14.5628 9.46764 14.0881 9.59709 13.6579C9.72654 13.2276 9.93689 12.8345 10.2282 12.4784C10.5194 12.1076 10.9159 11.7812 11.4175 11.4993C11.6926 11.351 12.0162 11.1878 12.3883 11.0097C12.7605 10.8169 13.1165 10.5943 13.4563 10.3421C13.7961 10.0899 14.0793 9.79323 14.3058 9.45202C14.5485 9.1108 14.6699 8.71025 14.6699 8.25035C14.6699 7.76078 14.5405 7.3528 14.2816 7.02643C14.0227 6.68521 13.6909 6.43301 13.2864 6.26982C12.8981 6.09179 12.4693 6.00278 12 6.00278C11.4984 6.00278 11.0372 6.09921 10.6165 6.29207C10.1958 6.48493 9.83172 6.72972 9.52427 7.02643C9.21683 7.32313 8.95793 7.63468 8.74757 7.96106L7 6.87065C7.29126 6.2624 7.69579 5.74316 8.21359 5.31293C8.73139 4.88271 9.32201 4.55633 9.98544 4.3338C10.6489 4.11127 11.3447 4 12.0728 4C12.6715 4 13.2621 4.08901 13.8447 4.26704C14.4434 4.43023 14.9773 4.68985 15.4466 5.0459C15.9159 5.40195 16.288 5.85443 16.5631 6.40334C16.8544 6.93741 17 7.58275 17 8.33936C17 8.8586 16.9272 9.31108 16.7816 9.6968C16.6521 10.0677 16.4579 10.4015 16.199 10.6982C15.9401 10.9949 15.6408 11.2619 15.301 11.4993C14.9612 11.7218 14.589 11.9369 14.1845 12.1446C13.7799 12.3672 13.3835 12.5971 12.9951 12.8345C12.6068 13.057 12.2832 13.3389 12.0243 13.6801C11.7654 14.0213 11.6359 14.4886 11.6359 15.0821H9.40291ZM9.47573 20V17.1961H11.6845V20H9.47573Z" fill="#FFC633"/>
</svg>
